#!OML:ASF F:\VICON\USERDATA\INSTALL\rory3\rory3.ASF
:FULLY-SPECIFIED
:DEGREES
2851
root 0.555619 16.0618 -0.0489801 -0.786584 -8.67198 0.41548
lowerback 9.58672 -2.24095 1.2172
upperback -4.94757 -2.32547 5.44325
thorax -10.5602 -0.975118 5.65201
lowerneck -3.7077 -13.4401 -14.6283
upperneck 2.08105 -18.8243 22.9389
head 4.95474 -8.97232 8.00389
rclavicle 2.36554e-014 -1.43125e-014
rhumerus 16.0047 -11.9948 -4.88264
rradius 97.6685
rwrist -57.7651
rhand 15.6435 5.12434
rfingers 7.12502
rthumb 40.457 -19.9622
lclavicle 2.36554e-014 -1.43125e-014
lhumerus 9.65871 8.92433 8.53547
lradius 109.648
lwrist 70.2707
lhand 20.5479 35.3968
lfingers 7.12502
lthumb 45.0451 58.8786
rfemur -5.70359 18.0305 15.5786
rtibia 20.7304
rfoot -10.2234 -14.0143
rtoes -14.3826
lfemur 3.28355 -6.94334 -19.5127
ltibia 10.0339
lfoot -9.7167 13.7637
ltoes -10.5919
2852
root 0.556162 16.0681 -0.0286145 -0.733203 -8.99046 0.428151
lowerback 9.53971 -2.23255 1.32444
upperback -5.00599 -2.29344 5.50075
thorax -10.603 -0.963673 5.64987
lowerneck -4.33869 -13.5868 -14.5172
upperneck 2.66199 -19.025 22.491
head 5.20853 -9.01468 7.76208
rclavicle 4.39314e-014 -3.81667e-014
rhumerus 16.5891 -12.9529 -4.85038
rradius 98.8143
rwrist -58.4456
rhand 17.3023 6.72524
rfingers 7.12502
rthumb 42.0142 -17.86
lclavicle 4.39314e-014 -3.81667e-014
lhumerus 9.75133 9.58178 7.80545
lradius 110.771
lwrist 70.8966
lhand 24.8513 35.5574
lfingers 7.12502
lthumb 49.0246 57.2776
rfemur -5.59025 17.7299 15.4789
rtibia 20.3657
rfoot -10.1744 -13.3662
rtoes -14.4358
lfemur 3.80435 -6.50137 -19.5168
ltibia 9.16695
lfoot -9.41266 13.6359
ltoes -10.4555
2853
root 0.556639 16.0749 -0.0103658 -0.666358 -9.2618 0.559205
lowerback 9.52751 -2.21087 1.27509
upperback -5.09232 -2.26305 5.55632
thorax -10.6915 -0.94054 5.73935
lowerneck -5.51517 -13.8338 -14.3437
upperneck 3.82806 -19.3679 21.6606
head 5.70517 -9.08026 7.32366
rclavicle -1.82882e-014 3.18055e-015
rhumerus 17.2657 -14.1397 -4.85784
rradius 99.8534
rwrist -59.6647
rhand 17.9496 7.56315
rfingers 7.12502
rthumb 42.6204 -16.8156
lclavicle -1.82882e-014 3.18055e-015
lhumerus 9.95924 10.3497 7.21804
lradius 111.847
lwrist 72.1034
lhand 28.5257 36.3777
lfingers 7.12502
lthumb 52.3767 56.2569
rfemur -5.52623 17.5423 15.2606
rtibia 20.0596
rfoot -10.1885 -12.8967
rtoes -14.5403
lfemur 4.31793 -6.10465 -19.6416
ltibia 8.22914
lfoot -9.05239 13.5133
ltoes -10.5374
2854
root 0.555466 16.0805 0.00588933 -0.634181 -9.57141 0.651035
lowerback 9.60896 -2.18258 1.23726
upperback -5.19432 -2.21654 5.61672
thorax -10.856 -0.907949 5.83256
lowerneck -5.9668 -13.9664 -14.1986
upperneck 4.27636 -19.5278 21.1346
head 5.86781 -9.12641 7.07352
rclavicle 9.14409e-015 6.67916e-014
rhumerus 18.0342 -15.5332 -5.03896
rradius 100.763
rwrist -61.3069
rhand 17.9751 7.77318
rfingers 7.12502
rthumb 42.6443 -16.5973
lclavicle 9.14409e-015 6.67916e-014
lhumerus 10.0553 11.2174 6.55973
lradius 112.67
lwrist 74.2668
lhand 31.0191 37.769
lfingers 7.12502
lthumb 54.6208 56.1785
rfemur -5.46627 17.4789 15.1156
rtibia 19.8148
rfoot -10.1185 -12.5223
rtoes -14.6954
lfemur 4.95662 -5.67065 -19.7212
ltibia 7.15828
lfoot -8.70891 13.4165
ltoes -10.3415
2855
root 0.55368 16.0844 0.0218085 -0.571716 -9.87515 0.610825
lowerback 9.65515 -2.15662 1.3463
upperback -5.31743 -2.15006 5.70097
thorax -11.0307 -0.875068 5.86435
lowerneck -5.51731 -14.0126 -14.095
upperneck 3.88672 -19.545 20.8863
head 5.63434 -9.18411 7.01187
rclavicle 2.06736e-014 3.18055e-014
rhumerus 18.8007 -17.0729 -5.24822
rradius 101.498
rwrist -63.3125
rhand 17.6156 7.73919
rfingers 7.12502
rthumb 42.3077 -16.7469
lclavicle 2.06736e-014 3.18055e-014
lhumerus 10.1958 12.2244 6.03643
lradius 113.497
lwrist 76.9727
lhand 31.9941 38.1691
lfingers 7.12502
lthumb 55.4902 55.9471
rfemur -5.41944 17.4622 15.1245
rtibia 19.5992
rfoot -10.0506 -12.2153
rtoes -14.2356
lfemur 5.60406 -5.24586 -19.6481
ltibia 6.02052
lfoot -8.28828 13.3648
ltoes -10.1288
2856
root 0.551193 16.089 0.0398525 -0.458627 -10.107 0.530864
lowerback 9.61596 -2.1578 1.49525
upperback -5.47078 -2.11678 5.78474
thorax -11.1871 -0.861738 5.87565
lowerneck -4.8587 -14.0164 -14.0053
upperneck 3.35887 -19.5051 20.6649
head 5.3194 -9.23058 6.98855
rclavicle -3.69739e-014 -1.74931e-014
rhumerus 19.6407 -18.7581 -5.55701
rradius 101.953
rwrist -65.4003
rhand 17.039 7.81486
rfingers 7.12502
rthumb 41.7673 -16.8527
lclavicle -3.69739e-014 -1.74931e-014
lhumerus 10.6291 13.513 5.88307
lradius 114.328
lwrist 79.4313
lhand 32.2734 38.0016
lfingers 7.12502
lthumb 55.7384 55.5923
rfemur -5.35987 17.5092 15.1832
rtibia 19.3997
rfoot -10.0727 -11.9756
rtoes -12.7165
lfemur 6.26647 -4.89376 -19.5242
ltibia 4.76431
lfoot -7.82427 13.2829
ltoes -9.91083
2857
root 0.550922 16.0931 0.0602761 -0.357209 -10.1795 0.533797
lowerback 9.51731 -2.22538 1.61235
upperback -5.57706 -2.18459 5.85176
thorax -11.2448 -0.898305 5.89757
lowerneck -4.64307 -13.9875 -14.2884
upperneck 3.26471 -19.4638 20.7524
head 5.28603 -9.22842 7.07938
rclavicle -7.95139e-015 -6.36111e-015
rhumerus 20.7113 -20.6891 -6.05944
rradius 102.056
rwrist -67.0908
rhand 16.3133 8.04505
rfingers 7.12502
rthumb 41.0864 -16.8438
lclavicle -7.95139e-015 -6.36111e-015
lhumerus 11.0771 15.0939 5.84482
lradius 114.865
lwrist 81.4199
lhand 32.3235 37.8611
lfingers 7.12502
lthumb 55.7829 55.418
rfemur -5.2756 17.5161 15.1549
rtibia 19.1922
rfoot -10.0662 -11.9141
rtoes -12.3562
lfemur 7.00798 -4.69803 -19.5129
ltibia 3.35743
lfoot -7.21368 13.2323
ltoes -9.94703
2858
root 0.551518 16.0977 0.078343 -0.271644 -10.2831 0.622645
lowerback 9.46906 -2.27889 1.63249
upperback -5.65383 -2.24802 5.90285
thorax -11.2966 -0.926345 5.9574
lowerneck -4.72751 -13.9666 -14.5517
upperneck 3.39485 -19.4405 20.8314
head 5.3713 -9.20862 7.13795
rclavicle 1.19271e-014 -4.6118e-014
rhumerus 21.8966 -22.7434 -6.72071
rradius 101.908
rwrist -68.3112
rhand 15.2566 8.38319
rfingers 7.12502
rthumb 40.0931 -16.8147
lclavicle 1.19271e-014 -4.6118e-014
lhumerus 11.4367 16.8777 5.7843
lradius 115.08
lwrist 83.0312
lhand 31.8583 37.4439
lfingers 7.12502
lthumb 55.3694 55.3119
rfemur -5.26675 17.5965 15.0422
rtibia 19.0072
rfoot -9.98254 -12.0195
rtoes -14.0441
lfemur 8.74285 -4.47371 -19.5587
ltibia 3.18055e-015
lfoot -5.62603 13.3457
ltoes -10.1811
2859
root 0.548864 16.1029 0.0939313 -0.164178 -10.4592 0.629906
lowerback 9.44932 -2.24697 1.69117
upperback -5.73822 -2.18831 5.95492
thorax -11.3868 -0.897086 5.97643
lowerneck -4.77428 -13.9861 -14.6726
upperneck 3.46015 -19.4657 20.8315
head 5.41551 -9.21702 7.14714
rclavicle -8.94531e-015 4.77083e-014
rhumerus 22.8822 -24.8712 -7.30903
rradius 101.555
rwrist -69.42
rhand 14.0939 8.52067
rfingers 7.12502
rthumb 38.9981 -16.9999
lclavicle -8.94531e-015 4.77083e-014
lhumerus 11.9312 18.7381 5.82533
lradius 115.006
lwrist 84.1626
lhand 31.1406 36.484
lfingers 7.12502
lthumb 54.7293 54.8166
rfemur -5.29294 17.8428 15.0394
rtibia 18.8341
rfoot -9.80364 -12.2184
rtoes -15.2605
lfemur 8.71649 -4.17636 -19.531
ltibia 3.65764e-014
lfoot -5.7708 13.2128
ltoes -9.69829
2860
root 0.545685 16.1071 0.111783 -0.077405 -10.6787 0.640707
lowerback 9.38489 -2.19611 1.68935
upperback -5.82573 -2.11445 6.00386
thorax -11.4525 -0.8572 6.02082
lowerneck -4.37646 -13.9317 -14.7224
upperneck 3.16052 -19.387 20.8913
head 5.25577 -9.21253 7.2176
rclavicle 4.67144e-014 -1.43125e-014
rhumerus 23.7709 -26.9299 -7.74849
rradius 101.081
rwrist -70.6016
rhand 12.5452 8.49388
rfingers 7.12502
rthumb 37.5362 -17.4301
lclavicle 4.67144e-014 -1.43125e-014
lhumerus 12.3214 20.5481 5.7978
lradius 114.564
lwrist 84.7676
lhand 30.8275 34.6285
lfingers 7.12502
lthumb 54.4494 53.1581
rfemur -5.29289 18.1007 15.0321
rtibia 18.6779
rfoot -9.6612 -12.3423
rtoes -15.4934
lfemur 8.73532 -3.83491 -19.5166
ltibia 3.02153e-014
lfoot -5.89147 13.076
ltoes -9.38199
2861
root 0.544835 16.1106 0.131036 0.028241 -10.7962 0.600074
lowerback 9.31251 -2.18926 1.76133
upperback -5.93749 -2.08468 6.09042
thorax -11.5394 -0.841714 6.07502
lowerneck -3.45474 -13.8142 -14.811
upperneck 2.28377 -19.1904 21.0605
head 4.8311 -9.19954 7.39194
rclavicle 1.96797e-014 4.29375e-014
rhumerus 24.6613 -28.7972 -8.02029
rradius 100.399
rwrist -71.4047
rhand 10.2191 8.80799
rfingers 7.12502
rthumb 35.3342 -17.6694
lclavicle 1.96797e-014 4.29375e-014
lhumerus 12.6088 22.3958 5.77912
lradius 113.928
lwrist 85.1286
lhand 30.0765 32.8884
lfingers 7.12502
lthumb 53.7758 51.8769
rfemur -5.28151 18.1998 15.0665
rtibia 18.5554
rfoot -9.60562 -12.375
rtoes -15.6169
lfemur 8.73473 -3.59436 -19.4633
ltibia -2.54444e-014
lfoot -6.00141 12.9187
ltoes -8.96974
2862
root 0.544566 16.1164 0.148503 0.162447 -10.8237 0.592641
lowerback 9.24228 -2.21511 1.84579
upperback -5.98151 -2.10004 6.18322
thorax -11.5467 -0.850961 6.1322
lowerneck -3.25207 -13.8274 -14.7789
upperneck 1.847 -19.1401 20.9055
head 4.63658 -9.20421 7.36774
rclavicle 2.5842e-015 -1.74931e-014
rhumerus 25.6772 -30.8018 -8.45202
rradius 99.5104
rwrist -71.7928
rhand 7.46315 9.24311
rfingers 7.12502
rthumb 32.7164 -17.8165
lclavicle 2.5842e-015 -1.74931e-014
lhumerus 12.9798 24.4142 5.90832
lradius 113.109
lwrist 85.3407
lhand 28.7504 31.6796
lfingers 7.12502
lthumb 52.5801 51.4342
rfemur -5.29606 18.2297 15.0603
rtibia 18.4429
rfoot -9.61008 -12.4559
rtoes -16.0245
lfemur 8.65813 -3.44231 -19.452
ltibia 1.43125e-014
lfoot -5.95688 12.7926
ltoes -9.24801
